Genre:Action | Drama | Western
Language:English
IMDb:http://www.imdb.com/title/tt1886493/
Source:1080p.BluRay.x264.DTS-HDChina Thanks!

Format : MPEG-4
Format profile : Base Media
Codec ID : isom
File size : 2.25 GiB
Duration : 1h 33mn
Overall bit rate : 3 433 Kbps

Video
ID : 1
Format : AVC
Format/Info : Advanced Video Codec
Format profile : High@L5.1
Format settings, CABAC : Yes
Format settings, ReFrames : 3 frames
Format settings, GOP : N=1
Codec ID : avc1
Codec ID/Info : Advanced Video Coding
Duration : 1h 33mn
Bit rate mode : Variable
Bit rate : 3 000 Kbps
Maximum bit rate : 14.5 Mbps
Width : 1 280 pixels
Height : 536 pixels
Display aspect ratio : 2.35:1
Frame rate mode : Constant
Frame rate : 23.976 fps
Color space : YUV
Chroma subsampling : 4:2:0
Bit depth : 8 bits
Scan type : Progressive
Bits/(Pixel*Frame) : 0.182
Stream size : 1.97 GiB (88%)
Writing library : x264

Audio
ID : 2
Format : AAC
Format/Info : Advanced Audio Codec
Format version : Version 4
Format profile : LC
Format settings, SBR : No
Codec ID : 40
Duration : 1h 33mn
Bit rate mode : Variable
Bit rate : 424 Kbps
Maximum bit rate : 546 Kbps
Channel(s) : 6 channels
Channel positions : Front: L C R, Side: L R, LFE
Sampling rate : 48.0 KHz
Stream size : 284 MiB (12%)
 
http://img17.imageshack.us/img17/9509/vlcsnap00003hd.png 
http://img684.imageshack.us/img684/1194/vlcsnap00004uf.png 
http://img805.imageshack.us/img805/8872/vlcsnap00005s.png 
http://img707.imageshack.us/img707/4092/vlcsnap00006nu.png 
http://img818.imageshack.us/img818/1336/vlcsnap00007c.png